<svg width="190" height="149" xmlns="http://www.w3.org/2000/svg">

 <g id="imagebot_2">
  <path stroke="#000000" stroke-width="2.994" fill="#ffffff" d="M 75.7543 149.121 L 46.3776 118.187 L 38.5726 48.1462 S 146.059 0.112718 168.049 12.4784 C 190.04 24.8429 188.509 44.5825 188.509 44.5825 L 188.307 102.844 L 75.7543 149.121 Z" id="imagebot_10"/>
  <path transform="matrix(1.2714 0 0 1.2714 -584.157 -19.6164)" fill-rule="evenodd" stroke="#000000" stroke-width="2.9315" fill="#ffffff" d="M 483.91 111.31 L 483.91 64.201 S 483.08 45.972 501.64 56.344 C 520.21 66.716 518.97 83.38 518.97 83.38 L 518.97 132.55 L 483.91 111.31 L 483.91 111.31 Z" id="imagebot_9"/>
  <path transform="matrix(1.2714 0 0 1.2714 -584.157 -19.6164)" fill-rule="evenodd" stroke="#000000" stroke-width="0.51378px" fill="#000000" d="M 528.7 98.424 L 528.7 49.501 L 560.62 39.908 L 560.62 60.053 L 535.31 68.686 L 535.31 98.424 S 533.1 107.06 528.7 98.424 Z" id="imagebot_8"/>
  <path stroke="#000000" stroke-width="1.9296" fill="none" d="M 72.9858 72.3509 L 47.2253 80.3028 L 63.1348 106.031 L 75.2513 100.417 L 72.9858 72.3509 Z" id="imagebot_5"/>
  <path d="M 74.1481 82.4325 L 58.103 90.455 L 68.0199 116.411 L 75.5721 110.753 L 74.1481 82.4325 Z" fill-rule="evenodd" stroke="#000000" stroke-width="2.5" fill="#ffffff" id="imagebot_4"/>
  <title>imagebot_2</title>
  <path fill-rule="evenodd" stroke="#000000" stroke-width="4" fill="#ffffff" d="M 31.9413 129.338 L 10.7723 84.8034 S 2.28257 68.5973 25.0657 79.386 C 47.8365 90.1748 53.6154 104.817 53.6154 104.817 L 74.2792 148.336 L 31.9413 129.338 Z" id="imagebot_7"/>
  <path transform="matrix(1.18828 0 0 1.03521 -541.034 11.7791)" fill-rule="evenodd" fill="#000000" d="M 480.12 87.649 S 480.97 95.239 486.03 96.926 S 496.15 95.239 496.15 95.239 S 491.93 95.239 486.87 92.709 S 481.81 87.649 480.12 87.649 Z" id="imagebot_6"/>
  <line transform="translate(58.0489 90.0935) matrix(1.17582 0 0 0.762651 -69.0421 -69.0119)" id="imagebot_13" y2="94.212" x2="73.24" y1="91.652" x1="59.928" fill-opacity="null" stroke-opacity="null" stroke-linecap="null" stroke-linejoin="null" stroke-dasharray="null" stroke-width="2.5" stroke="#000000" fill="none"/>
  <line transform="translate(47.0338 79.0364) matrix(1.10852 0 0 0.9246 -53.1775 -73.5502)" id="imagebot_14" y2="83.972" x2="71.192" y1="80.9" x1="49.176" fill-opacity="null" stroke-opacity="null" stroke-linecap="null" stroke-linejoin="null" stroke-dasharray="null" stroke-width="2.5" stroke="#000000" fill="none"/>
  <line transform="translate(0.384829 1.59429) matrix(1.1408 0 0 1.09787 5.85017 10.4424)" id="imagebot_15" y2="87.81824" x2="50.59936" y1="91.7504" x1="43.06272" stroke-opacity="null" stroke-linecap="null" stroke-linejoin="null" stroke-dasharray="null" stroke="#000000" fill="none"/>
 </g>
 <metadata>image/svg+xmlOpenclipartMailbox 3 icon2006-12-26T00:00:00https://openclipart.org/detail/24649/-by--24649Anonymous</metadata>
</svg>